<svg xmlns="http://www.w3.org/2000/svg" xmlns:xlink="http://www.w3.org/1999/xlink" preserveAspectRatio="xMidYMid" width="50" height="56.03" viewBox="0 0 50 56.03">
  <defs>
    <style>
      .cls-1 {
        fill: #25c5da;
        fill-rule: evenodd;
      }
    </style>
  </defs>
  <path d="M49.616,48.882 C49.410,48.610 49.134,48.466 48.814,48.309 C47.366,47.603 42.960,45.438 42.553,29.336 C42.322,20.221 37.978,15.839 34.376,13.797 C32.427,12.692 30.430,12.078 28.769,11.740 C30.165,10.507 31.051,8.723 31.051,6.733 C31.051,3.027 27.999,0.011 24.247,0.011 C20.495,0.011 17.443,3.027 17.443,6.733 C17.443,8.720 18.327,10.507 19.722,11.738 C8.765,14.000 7.544,25.576 7.448,29.369 C7.347,33.352 7.040,45.475 1.187,48.332 C0.866,48.489 0.590,48.631 0.384,48.900 L0.006,49.436 L0.284,50.011 C0.613,50.661 0.692,50.864 7.296,50.864 C10.506,50.864 14.476,50.836 17.907,50.800 C18.847,53.862 21.691,56.019 25.066,56.019 C28.387,56.019 31.190,53.927 32.174,50.944 C35.591,51.057 39.520,51.166 42.703,51.166 C42.704,51.166 42.704,51.166 42.705,51.166 C49.307,51.166 49.386,50.809 49.715,50.159 L49.990,49.378 L49.616,48.882 ZM19.459,6.733 C19.459,4.125 21.607,2.004 24.247,2.004 C26.887,2.004 29.035,4.125 29.035,6.733 C29.035,8.984 27.433,10.864 25.297,11.340 C25.254,11.339 25.205,11.338 25.167,11.338 L25.073,11.338 C24.797,11.338 24.323,11.349 23.705,11.349 C23.555,11.349 23.414,11.357 23.266,11.360 C21.095,10.912 19.459,9.008 19.459,6.733 ZM25.066,54.029 C22.857,54.029 20.919,52.688 20.062,50.775 C22.254,50.749 24.044,50.720 24.976,50.698 C25.940,50.721 27.784,50.791 30.032,50.871 C29.155,52.733 27.240,54.029 25.066,54.029 ZM42.705,49.175 C42.704,49.175 42.703,49.175 42.703,49.175 C36.567,49.175 27.621,48.769 24.976,48.707 C22.379,48.769 13.430,48.874 7.296,48.874 C5.954,48.874 4.924,48.766 4.133,48.750 C6.321,46.737 9.146,41.941 9.463,29.420 C9.823,15.192 19.240,13.462 23.503,13.412 C23.689,13.432 23.878,13.441 24.068,13.445 L24.072,13.494 L25.167,13.509 C27.667,13.509 40.153,14.329 40.537,29.516 C40.854,42.039 43.679,46.936 45.867,48.948 C45.076,48.964 44.046,49.175 42.705,49.175 Z" class="cls-1"/>
</svg>
