<svg xmlns="http://www.w3.org/2000/svg" xmlns:xlink="http://www.w3.org/1999/xlink" preserveAspectRatio="xMidYMid" width="51" height="43" viewBox="0 0 51 43">
  <defs>
    <style>
      .cls-1 {
        fill: #25c5da;
        fill-rule: evenodd;
      }
    </style>
  </defs>
  <path d="M-0.000,43.001 L-0.000,13.299 L8.482,-0.000 L21.074,-0.000 L28.926,-0.000 L42.862,-0.000 L51.000,13.308 L51.000,43.001 L-0.000,43.001 ZM9.579,2.000 L2.562,13.001 L20.000,13.001 L20.074,13.001 L20.753,4.174 L20.920,2.000 L9.579,2.000 ZM28.000,15.000 L22.000,15.000 L22.000,24.001 L28.000,24.001 L28.000,15.000 ZM27.074,2.000 L22.926,2.000 L22.080,13.001 L27.920,13.001 L27.074,2.000 ZM41.741,2.000 L29.080,2.000 L29.644,9.330 L29.926,13.001 L30.000,13.001 L48.468,13.001 L41.741,2.000 ZM49.000,15.000 L30.080,15.000 L30.000,15.000 L30.000,26.000 L20.000,26.000 L20.000,15.000 L19.920,15.000 L2.000,15.000 L2.000,41.001 L49.000,41.001 L49.000,15.000 ZM32.000,33.000 L46.000,33.000 C46.553,33.000 47.000,33.448 47.000,34.001 C47.000,34.552 46.553,35.000 46.000,35.000 L32.000,35.000 C31.447,35.000 31.000,34.552 31.000,34.001 C31.000,33.448 31.447,33.000 32.000,33.000 ZM37.000,37.000 L46.000,37.000 C46.553,37.000 47.000,37.447 47.000,38.000 C47.000,38.554 46.553,39.000 46.000,39.000 L37.000,39.000 C36.447,39.000 36.000,38.554 36.000,38.000 C36.000,37.447 36.447,37.000 37.000,37.000 ZM46.000,31.001 L39.000,31.001 C38.447,31.001 38.000,30.553 38.000,30.000 C38.000,29.448 38.447,29.000 39.000,29.000 L46.000,29.000 C46.553,29.000 47.000,29.448 47.000,30.000 C47.000,30.553 46.553,31.001 46.000,31.001 Z" class="cls-1"/>
</svg>
