<svg xmlns="http://www.w3.org/2000/svg" xmlns:xlink="http://www.w3.org/1999/xlink" preserveAspectRatio="xMidYMid" width="33" height="52" viewBox="0 0 33 52">
  <defs>
    <style>
      .cls-1 {
        fill: #25c5da;
        fill-rule: evenodd;
      }
    </style>
  </defs>
  <path d="M28.000,52.000 L5.000,52.000 C2.243,52.000 -0.000,49.756 -0.000,47.000 L-0.000,7.999 C-0.000,5.243 2.243,2.999 5.000,2.999 L8.000,2.999 L8.000,-0.001 L25.000,-0.001 L25.000,2.999 L28.000,2.999 C30.757,2.999 33.000,5.243 33.000,7.999 L33.000,47.000 C33.000,49.756 30.757,52.000 28.000,52.000 ZM23.000,2.000 L10.000,2.000 L10.000,6.999 L23.000,6.999 L23.000,2.000 ZM31.000,7.999 C31.000,6.345 29.654,4.999 28.000,4.999 L25.000,4.999 L25.000,9.001 L8.000,9.001 L8.000,4.999 L5.000,4.999 C3.346,4.999 2.000,6.345 2.000,7.999 L2.000,47.000 C2.000,48.653 3.346,50.000 5.000,50.000 L28.000,50.000 C29.654,50.000 31.000,48.653 31.000,47.000 L31.000,7.999 ZM5.000,32.999 L26.000,32.999 L26.000,35.000 L5.000,35.000 L5.000,32.999 ZM5.000,26.999 L26.000,26.999 L26.000,28.999 L5.000,28.999 L5.000,26.999 ZM5.000,20.999 L26.000,20.999 L26.000,23.000 L5.000,23.000 L5.000,20.999 ZM18.000,13.001 L26.000,13.001 L26.000,14.999 L18.000,14.999 L18.000,13.001 ZM22.000,41.000 L5.000,41.000 L5.000,38.999 L22.000,38.999 L22.000,41.000 Z" class="cls-1"/>
</svg>
