<?xml version="1.0" encoding="utf-8"?>
<!-- Generator: Adobe Illustrator 18.1.0, SVG Export Plug-In . SVG Version: 6.00 Build 0)  -->
<!DOCTYPE svg PUBLIC "-//W3C//DTD SVG 1.1//EN" "http://www.w3.org/Graphics/SVG/1.1/DTD/svg11.dtd" [
	<!ENTITY ns_extend "http://ns.adobe.com/Extensibility/1.0/">
	<!ENTITY ns_ai "http://ns.adobe.com/AdobeIllustrator/10.0/">
	<!ENTITY ns_graphs "http://ns.adobe.com/Graphs/1.0/">
	<!ENTITY ns_vars "http://ns.adobe.com/Variables/1.0/">
	<!ENTITY ns_imrep "http://ns.adobe.com/ImageReplacement/1.0/">
	<!ENTITY ns_sfw "http://ns.adobe.com/SaveForWeb/1.0/">
	<!ENTITY ns_custom "http://ns.adobe.com/GenericCustomNamespace/1.0/">
	<!ENTITY ns_adobe_xpath "http://ns.adobe.com/XPath/1.0/">
]>
<svg version="1.1" id="Layer_1" xmlns:x="&ns_extend;" xmlns:i="&ns_ai;" xmlns:graph="&ns_graphs;"
	 xmlns="http://www.w3.org/2000/svg" xmlns:xlink="http://www.w3.org/1999/xlink" x="0px" y="0px" width="550.9px" height="339px"
	 viewBox="0 0 550.9 339" enable-background="new 0 0 550.9 339" xml:space="preserve">
<metadata>
	<sfw  xmlns="&ns_sfw;">
		<slices></slices>
		<sliceSourceBounds  width="550.9" height="339" bottomLeftOrigin="true" y="-590.5" x="32.3"></sliceSourceBounds>
	</sfw>
</metadata>
<g id="XMLID_157_">
	<g>
		<path fill="#80DEEA" d="M37.4,228.7c14.4-23.5,32.6-42.1,54.1-55.5c26-16.2,57.1-24.7,92.5-25.3c29.7-0.5,60.6-1.6,91.6-3
			c2.7-0.1,5.4-0.3,8.1-0.4l8.8-2.6c59-17.6,107.3-60.3,132.2-116.7L435.7,0c0,0-141.2,58.7-309,108.8
			c-144.3,43.1-129,188.6-123.2,223C5.3,314,12.3,269.6,37.4,228.7z"/>
		<path fill="#80DEEA" d="M3.6,332.2c0.7,4.4,1.3,6.8,1.3,6.8s0,0,0,0c0.5-2,1-4.1,1.5-6.1L3.6,332.2z"/>
	</g>
	<path fill="#4DD0E1" d="M43.2,270.1c16.2-19.8,34.4-35.6,54-47c24.6-14.2,51.5-21.4,80-21.4c17.9,0,36.6,2.8,55.8,8.5
		c20.2,5.9,40.3,11.6,59.8,16.9l14.5-0.3c39.5-0.8,77.9-10.2,112.7-27c34.8-16.9,65.9-41.2,91-71.7c0,0-102,12.5-235.2,18.8
		c-29.3,1.4-60.1,2.5-91.7,3C32.3,152.7,8.8,299.2,5.4,332.4C10.2,321.1,22.5,295.5,43.2,270.1z M70.8,191.5
		c7.1-6.4,14.9-12.3,23.5-17.6c5.7,2.3,10.1,7.4,10.8,14c1,9.5-5.9,18-15.4,18.9C80.2,207.8,71.7,200.9,70.8,191.5L70.8,191.5z"/>
	<path id="XMLID_304_" fill="#26C6DA" d="M4.9,339c0,0,63.3-175.1,227.5-126.9c168.1,49.3,318.5,76.9,318.5,76.9l0,0
		c-66.1,43.3-147.9,55.5-223.8,33.3l-132.4-38.7C194.6,283.6,84.7,261,4.9,339z"/>
</g>
</svg>
