<svg xmlns="http://www.w3.org/2000/svg" xmlns:xlink="http://www.w3.org/1999/xlink" preserveAspectRatio="xMidYMid" width="54" height="54" viewBox="0 0 54 54">
  <defs>
    <style>
      .cls-1 {
        fill: #25c5da;
        fill-rule: evenodd;
      }
    </style>
  </defs>
  <path d="M0.000,54.001 L0.000,0.002 L54.000,0.002 L54.000,54.001 L0.000,54.001 ZM52.000,2.001 L2.000,2.001 L2.000,52.000 L52.000,52.000 L52.000,2.001 ZM11.000,13.109 L11.000,10.001 C11.000,9.449 11.448,8.999 12.000,8.999 C12.552,8.999 13.000,9.449 13.000,10.001 L13.000,13.109 C14.715,13.508 16.000,15.040 16.000,16.875 L16.000,17.126 C16.000,18.961 14.715,20.494 13.000,20.893 L13.000,43.001 C13.000,43.554 12.552,44.000 12.000,44.000 C11.448,44.000 11.000,43.554 11.000,43.001 L11.000,20.893 C9.285,20.494 8.000,18.961 8.000,17.126 L8.000,16.875 C8.000,15.040 9.285,13.508 11.000,13.109 ZM10.000,17.126 C10.000,18.159 10.841,19.000 11.875,19.000 L12.125,19.000 C13.159,19.000 14.000,18.159 14.000,17.126 L14.000,16.875 C14.000,15.841 13.159,15.001 12.125,15.001 L11.875,15.001 C10.841,15.001 10.000,15.841 10.000,16.875 L10.000,17.126 ZM26.000,23.051 L26.000,10.001 C26.000,9.449 26.447,8.999 27.000,8.999 C27.553,8.999 28.000,9.449 28.000,10.001 L28.000,23.051 C29.715,23.241 31.000,24.040 31.000,25.875 L31.000,26.126 C31.000,27.961 29.715,29.493 28.000,29.892 L28.000,43.001 C28.000,43.554 27.553,44.000 27.000,44.000 C26.447,44.000 26.000,43.554 26.000,43.001 L26.000,29.892 C24.285,29.493 23.000,27.961 23.000,26.126 L23.000,25.875 C23.000,24.040 24.285,23.241 26.000,23.051 ZM25.000,26.126 C25.000,27.159 25.841,28.000 26.875,28.000 L27.125,28.000 C28.159,28.000 29.000,27.159 29.000,26.126 L29.000,25.875 C29.000,24.842 28.159,24.001 27.125,24.001 L26.875,24.001 C25.841,24.001 25.000,24.842 25.000,25.875 L25.000,26.126 ZM41.000,31.109 L41.000,10.001 C41.000,9.449 41.447,8.999 42.000,8.999 C42.553,8.999 43.000,9.449 43.000,10.001 L43.000,31.109 C44.715,31.508 46.000,33.040 46.000,34.875 L46.000,35.126 C46.000,36.961 44.715,38.494 43.000,38.893 L43.000,43.001 C43.000,43.554 42.553,44.000 42.000,44.000 C41.447,44.000 41.000,43.554 41.000,43.001 L41.000,38.893 C39.285,38.494 38.000,36.961 38.000,35.126 L38.000,34.875 C38.000,33.040 39.285,31.508 41.000,31.109 ZM40.000,35.126 C40.000,36.159 40.841,37.000 41.875,37.000 L42.125,37.000 C43.159,37.000 44.000,36.159 44.000,35.126 L44.000,34.875 C44.000,33.842 43.159,33.000 42.125,33.000 L41.875,33.000 C40.841,33.000 40.000,33.842 40.000,34.875 L40.000,35.126 Z" class="cls-1"/>
</svg>
