<svg xmlns="http://www.w3.org/2000/svg" xmlns:xlink="http://www.w3.org/1999/xlink" preserveAspectRatio="xMidYMid" width="23.34" height="22.81" viewBox="0 0 23.34 22.81">
  <defs>
    <style>
      .cls-1 {
        fill: #000;
        opacity: 0.6;
        fill-rule: evenodd;
      }
    </style>
  </defs>
  <path d="M23.204,18.665 C23.042,19.191 22.753,19.665 22.366,20.043 L20.719,21.653 C19.928,22.429 18.827,22.815 17.504,22.815 C16.100,22.815 14.445,22.380 12.642,21.509 C10.434,20.451 8.180,18.830 6.127,16.821 C4.073,14.812 2.416,12.607 1.333,10.445 C-0.392,7.022 -0.446,4.142 1.187,2.545 L2.834,0.935 C3.221,0.555 3.705,0.273 4.233,0.116 C5.417,-0.222 6.684,0.091 7.546,0.935 L10.839,4.157 C11.353,4.659 11.676,5.290 11.774,5.980 C11.976,7.276 11.212,8.637 9.915,9.278 L8.731,9.857 C9.370,10.656 10.059,11.447 10.839,12.210 C11.620,12.975 12.428,13.648 13.245,14.273 L13.835,13.119 C14.502,11.826 15.862,11.092 17.222,11.298 C17.914,11.392 18.559,11.708 19.072,12.210 L22.366,15.433 C23.227,16.275 23.548,17.514 23.204,18.665 ZM20.947,16.821 L17.654,13.598 C17.451,13.400 17.202,13.277 16.933,13.241 C16.368,13.153 15.855,13.560 15.628,14.000 L14.493,16.220 C14.481,16.243 14.459,16.257 14.445,16.280 C14.433,16.301 14.431,16.325 14.416,16.345 C14.397,16.371 14.366,16.381 14.345,16.405 C14.278,16.483 14.203,16.547 14.117,16.599 C14.074,16.625 14.035,16.651 13.989,16.670 C13.892,16.711 13.792,16.731 13.686,16.741 C13.655,16.743 13.626,16.762 13.595,16.762 C13.583,16.762 13.572,16.757 13.560,16.757 C13.528,16.756 13.498,16.747 13.466,16.743 C13.378,16.731 13.292,16.709 13.208,16.674 C13.188,16.666 13.167,16.668 13.147,16.658 C13.129,16.649 13.118,16.632 13.100,16.622 C13.074,16.607 13.044,16.600 13.018,16.583 C11.789,15.735 10.578,14.731 9.421,13.598 C8.263,12.466 7.237,11.282 6.370,10.079 C6.352,10.053 6.349,10.022 6.333,9.995 C6.323,9.978 6.302,9.971 6.293,9.953 C6.273,9.915 6.274,9.873 6.260,9.833 C6.238,9.771 6.217,9.711 6.208,9.647 C6.199,9.583 6.201,9.523 6.204,9.461 C6.208,9.398 6.213,9.338 6.229,9.277 C6.245,9.216 6.269,9.160 6.297,9.102 C6.324,9.046 6.351,8.994 6.389,8.943 C6.429,8.889 6.477,8.844 6.528,8.799 C6.559,8.771 6.578,8.735 6.613,8.711 C6.634,8.697 6.659,8.695 6.681,8.682 C6.704,8.669 6.718,8.647 6.742,8.636 L9.014,7.524 C9.460,7.304 9.872,6.798 9.789,6.262 C9.749,5.986 9.623,5.742 9.421,5.544 L6.127,2.322 C5.785,1.987 5.280,1.863 4.804,1.999 C4.603,2.058 4.404,2.173 4.252,2.322 L2.606,3.933 C1.648,4.869 1.850,7.033 3.134,9.579 C4.121,11.552 5.646,13.575 7.546,15.433 C9.445,17.291 11.513,18.783 13.527,19.748 C16.131,21.005 18.342,21.202 19.301,20.266 L20.947,18.655 C21.099,18.506 21.217,18.312 21.281,18.107 C21.416,17.652 21.290,17.156 20.947,16.821 Z" class="cls-1"/>
</svg>
