<svg xmlns="http://www.w3.org/2000/svg" xmlns:xlink="http://www.w3.org/1999/xlink" preserveAspectRatio="xMidYMid" width="23.75" height="15.88" viewBox="0 0 23.75 15.88">
  <defs>
    <style>
      .cls-1 {
        fill: #000;
        opacity: 0.6;
        fill-rule: evenodd;
      }
    </style>
  </defs>
  <path d="M22.772,15.869 L1.008,15.869 C0.461,15.869 0.018,15.425 0.018,14.878 L0.018,0.987 C0.018,0.959 0.032,0.936 0.034,0.908 C0.039,0.842 0.054,0.779 0.073,0.714 C0.092,0.649 0.113,0.588 0.144,0.529 C0.157,0.505 0.158,0.478 0.173,0.454 C0.192,0.423 0.223,0.406 0.246,0.378 C0.288,0.325 0.331,0.278 0.383,0.234 C0.433,0.193 0.484,0.159 0.540,0.129 C0.594,0.099 0.647,0.075 0.707,0.056 C0.773,0.034 0.838,0.022 0.907,0.015 C0.942,0.011 0.972,-0.005 1.008,-0.005 L22.772,-0.005 C22.807,-0.005 22.837,0.011 22.871,0.015 C22.942,0.022 23.008,0.034 23.075,0.056 C23.134,0.075 23.187,0.099 23.240,0.128 C23.296,0.159 23.347,0.193 23.397,0.234 C23.449,0.278 23.492,0.325 23.534,0.378 C23.557,0.406 23.588,0.423 23.607,0.454 C23.622,0.478 23.623,0.505 23.636,0.529 C23.667,0.588 23.688,0.648 23.707,0.713 C23.726,0.779 23.741,0.842 23.746,0.909 C23.748,0.936 23.762,0.959 23.762,0.987 L23.762,14.878 C23.762,15.425 23.319,15.869 22.772,15.869 ZM4.404,1.978 L11.890,6.756 L19.376,1.978 L4.404,1.978 ZM21.783,2.794 L12.421,8.769 C12.407,8.778 12.391,8.781 12.376,8.790 C12.357,8.801 12.337,8.807 12.317,8.816 C12.180,8.883 12.036,8.924 11.891,8.924 C11.891,8.924 11.890,8.924 11.890,8.924 C11.890,8.924 11.889,8.924 11.889,8.924 C11.744,8.924 11.600,8.883 11.463,8.816 C11.443,8.807 11.423,8.801 11.404,8.790 C11.389,8.781 11.373,8.778 11.359,8.769 L1.997,2.794 L1.997,13.885 L21.783,13.885 L21.783,2.794 Z" class="cls-1"/>
</svg>
