<?xml version="1.0" encoding="utf-8"?>
<!-- Generator: Adobe Illustrator 19.0.0, SVG Export Plug-In . SVG Version: 6.00 Build 0)  -->
<svg version="1.1" id="Layer_1" xmlns="http://www.w3.org/2000/svg" xmlns:xlink="http://www.w3.org/1999/xlink" x="0px" y="0px"
	 viewBox="0 0 768 1366" style="enable-background:new 0 0 768 1366;" xml:space="preserve">
<style type="text/css">
	.st0{fill:url(#XMLID_2_);}
	.st1{fill:url(#XMLID_3_);}
	.st2{fill:none;stroke:#25D8B5;stroke-width:7;stroke-miterlimit:10;}
	.st3{fill:#FFFFFF;}
</style>
<linearGradient id="XMLID_2_" gradientUnits="userSpaceOnUse" x1="59.1372" y1="-16148.9551" x2="705.6623" y2="-14988.7881" gradientTransform="matrix(1 0 0 -1 0 -15016)">
	<stop  offset="0" style="stop-color:#25C7D7"/>
	<stop  offset="1" style="stop-color:#25D8B5"/>
</linearGradient>
<rect id="XMLID_162_" x="0" class="st0" width="768" height="1100"/>
<linearGradient id="XMLID_3_" gradientUnits="userSpaceOnUse" x1="155.1822" y1="-16068.0928" x2="623.0002" y2="-15045.5391" gradientTransform="matrix(1 0 0 -1 0 -15016)">
	<stop  offset="0" style="stop-color:#232D39"/>
	<stop  offset="1" style="stop-color:#36557E"/>
</linearGradient>
<rect id="XMLID_161_" x="61.9" y="64" class="st1" width="644.1" height="976"/>
<g id="XMLID_147_">
	<g id="XMLID_157_">
		<circle id="XMLID_159_" class="st2" cx="549.1" cy="1175.1" r="26.1"/>
		<path id="XMLID_158_" class="st2" d="M512.8,1282.2l18.7-58c5.5-17,29.6-17,35.1,0l18.7,58c3.5,10.7-4.5,21.7-15.8,21.7h-41
			C517.3,1303.9,509.3,1292.9,512.8,1282.2z"/>
	</g>
	<g id="XMLID_154_">
		<circle id="XMLID_156_" class="st2" cx="384" cy="1175.1" r="26.1"/>
		<path id="XMLID_155_" class="st2" d="M347.7,1282.2l18.7-58c5.5-17,29.6-17,35.1,0l18.7,58c3.5,10.7-4.5,21.7-15.8,21.7h-41
			C352.2,1303.9,344.2,1292.9,347.7,1282.2z"/>
	</g>
	<g id="XMLID_148_">
		<circle id="XMLID_153_" class="st2" cx="218.9" cy="1175.1" r="26.1"/>
		<path id="XMLID_149_" class="st2" d="M182.7,1282.2l18.7-58c5.5-17,29.6-17,35.1,0l18.7,58c3.5,10.7-4.5,21.7-15.8,21.7h-41
			C187.2,1303.9,179.2,1292.9,182.7,1282.2z"/>
	</g>
</g>
<path id="XMLID_132_" class="st3" d="M391.5,559.5l16-0.3c58.3-1.1,113.2-27.7,150.1-72.8l0,0c0,0-75.2,9.2-173.4,13.8l12.3-3.7
	c43.5-13,79.1-44.5,97.5-86l8.2-18.6c0,0-104.1,43.3-227.9,80.2C153.4,508.3,184.5,642,184.5,642c58.9-57.6,139.9-40.9,139.9-40.9
	l97.6,28.6c56,16.4,116.3,7.4,165-24.6h0C587.1,605.1,498.6,588.9,391.5,559.5z M247,544.5c-7,0.7-13.2-4.3-14-11.3l0,0
	c5.2-4.7,11-9.1,17.4-12.9c4.2,1.7,7.4,5.5,7.9,10.3C259.1,537.5,254,543.8,247,544.5z"/>
</svg>
