<?xml version="1.0" encoding="UTF-8" standalone="no"?>
<svg
   xmlns:dc="http://purl.org/dc/elements/1.1/"
   xmlns:cc="http://creativecommons.org/ns#"
   xmlns:rdf="http://www.w3.org/1999/02/22-rdf-syntax-ns#"
   xmlns:svg="http://www.w3.org/2000/svg"
   xmlns="http://www.w3.org/2000/svg"
   viewBox="0 0 207.82533 56.508266"
   height="56.508266"
   width="207.82533"
   xml:space="preserve"
   id="svg2"
   version="1.1"><metadata
     id="metadata8"><rdf:RDF><cc:Work
         rdf:about=""><dc:format>image/svg+xml</dc:format><dc:type
           rdf:resource="http://purl.org/dc/dcmitype/StillImage" /></cc:Work></rdf:RDF></metadata><defs
     id="defs6"><clipPath
       id="clipPath34"
       clipPathUnits="userSpaceOnUse"><path
         id="path32"
         d="M 0,42.381 H 155.869 V 0 H 0 Z" /></clipPath></defs><g
     transform="matrix(1.3333333,0,0,-1.3333333,0,56.508267)"
     id="g10"><g
       transform="translate(71.5805,16.1042)"
       id="g12"><path
         id="path14"
         style="fill:#ffffff;fill-opacity:1;fill-rule:nonzero;stroke:none"
         d="M 0,0 V 10.173 H 2.368 V 6.227 h 7.391 v 3.946 h 2.388 V 0 H 9.759 V 4.379 H 2.368 L 2.368,0 Z" /></g><g
       transform="translate(93.2533,20.1659)"
       id="g16"><path
         id="path18"
         style="fill:#ffffff;fill-opacity:1;fill-rule:nonzero;stroke:none"
         d="M 0,0 H 4.457 L 2.262,4.138 Z M -4.552,-4.062 1.204,6.111 H 3.485 L 9.317,-4.062 H 6.66 L 5.438,-1.838 H -1.01 l -1.184,-2.224 z" /></g><g
       transform="translate(108.6582,16.1042)"
       id="g20"><path
         id="path22"
         style="fill:#ffffff;fill-opacity:1;fill-rule:nonzero;stroke:none"
         d="m 0,0 -3.917,10.173 h 2.445 l 2.579,-6.824 2.705,6.824 h 1.656 l 2.752,-6.824 2.464,6.824 h 2.117 L 8.874,0 H 7.277 L 4.477,7.036 1.637,0 Z" /></g><g
       transform="translate(126.4902,16.1042)"
       id="g24"><path
         id="path26"
         style="fill:#ffffff;fill-opacity:1;fill-rule:nonzero;stroke:none"
         d="M 0,0 V 10.173 H 2.386 V 5.928 l 5.641,4.245 h 3.426 L 4.716,5.38 12.28,0 H 8.479 L 2.386,4.475 V 0 Z" /></g><g
       id="g28"><g
         clip-path="url(#clipPath34)"
         id="g30"><g
           transform="translate(151.4519,24.5165)"
           id="g36"><path
             id="path38"
             style="fill:#ffffff;fill-opacity:1;fill-rule:nonzero;stroke:none"
             d="M 0,0 H -5.323 V -2.83 H 0 c 0.41,0 0.691,0.06 0.842,0.178 0.151,0.119 0.226,0.329 0.226,0.631 v 1.222 c 0,0.295 -0.075,0.501 -0.226,0.621 C 0.691,-0.059 0.41,0 0,0 M -7.652,-8.412 V 1.76 h 8.7 C 1.857,1.76 2.442,1.605 2.805,1.294 3.168,0.983 3.349,0.481 3.349,-0.212 V -2.599 C 3.349,-3.285 3.168,-3.786 2.805,-4.1 2.442,-4.415 1.857,-4.572 1.048,-4.572 H -0.28 l 4.697,-3.84 H 1.02 l -4.1,3.84 h -2.243 v -3.84 z" /></g><g
           transform="translate(11.2124,16.5275)"
           id="g40"><path
             id="path42"
             style="fill:#80deea;fill-opacity:1;fill-rule:nonzero;stroke:none"
             d="m 0,0 c -1.184,-0.124 -2.244,0.736 -2.368,1.92 v 0.001 c 0.885,0.798 1.859,1.54 2.944,2.194 C 1.289,3.825 1.835,3.186 1.921,2.368 2.045,1.184 1.185,0.124 0,0 m 4.624,12.259 c -20.502,-6.119 -15.228,-28.786 -15.228,-28.786 0,0 0,0.001 10e-4,0.002 C -7.54,-2.906 5.525,2.191 5.525,2.191 l 17.729,5.304 2.091,0.626 c 7.377,2.206 13.415,7.537 16.521,14.583 l 1.389,3.15 c 0,0 -17.654,-7.334 -38.631,-13.595" /></g><g
           transform="translate(8.8448,18.4487)"
           id="g44"><path
             id="path46"
             style="fill:#4dd0e1;fill-opacity:1;fill-rule:nonzero;stroke:none"
             d="M 0,0 C 0.885,0.798 1.859,1.54 2.944,2.194 3.656,1.904 4.202,1.265 4.289,0.446 4.413,-0.737 3.553,-1.798 2.368,-1.921 1.184,-2.045 0.124,-1.185 0,-0.001 Z M 25.621,5.574 C 21.958,5.401 18.105,5.268 14.159,5.195 -7.232,4.803 -8.236,-18.449 -8.236,-18.449 c 0,0 0,0.002 0.001,0.003 6.606,12.295 20.56,13.7 20.56,13.7 l 14.535,0.276 2.708,0.051 c 4.941,0.094 9.737,1.269 14.082,3.374 4.344,2.107 8.237,5.145 11.371,8.966 0,0 -12.747,-1.562 -29.4,-2.347" /></g><g
           transform="translate(0.6086,1e-4)"
           id="g48"><path
             id="path50"
             style="fill:#26c6da;fill-opacity:1;fill-rule:nonzero;stroke:none"
             d="M 0,0 C 0,0 7.91,21.887 28.44,15.865 49.447,9.702 68.248,6.249 68.248,6.249 v 0 C 59.982,0.83 49.755,-0.692 40.269,2.084 L 23.718,6.928 C 23.718,6.928 9.98,9.76 0,0" /></g></g></g></g></svg>