<svg xmlns="http://www.w3.org/2000/svg" xmlns:xlink="http://www.w3.org/1999/xlink" preserveAspectRatio="xMidYMid" width="49" height="41" viewBox="0 0 49 41">
  <defs>
    <style>
      .cls-1 {
        fill: #25c5da;
        fill-rule: evenodd;
      }
    </style>
  </defs>
  <path d="M-0.000,41.000 L-0.000,39.000 L49.000,39.000 L49.000,41.000 L-0.000,41.000 ZM45.000,29.418 L32.336,33.941 C32.227,33.981 32.113,34.000 32.000,34.000 C31.757,34.000 31.518,33.910 31.331,33.743 L21.714,25.087 L13.217,26.976 C12.903,27.044 12.575,26.959 12.335,26.747 L5.000,20.226 L5.000,35.999 L3.000,35.999 L3.000,0.999 C3.000,0.608 3.229,0.252 3.585,0.089 C3.942,-0.073 4.360,-0.011 4.656,0.245 L15.744,9.886 L25.469,7.039 C25.837,6.932 26.238,7.046 26.496,7.333 L37.676,19.836 L45.671,17.054 C45.976,16.949 46.314,16.999 46.580,17.184 C46.843,17.371 47.000,17.677 47.000,17.999 L47.000,35.999 L45.000,35.999 L45.000,29.418 ZM37.704,21.945 C37.323,22.075 36.898,21.968 36.629,21.666 L25.425,9.136 L15.781,11.959 C15.454,12.051 15.101,11.978 14.844,11.754 L5.000,3.193 L5.000,17.550 L13.282,24.912 L21.783,23.024 C22.099,22.954 22.429,23.041 22.669,23.257 L32.226,31.857 L45.000,27.295 L45.000,19.406 L37.704,21.945 Z" class="cls-1"/>
</svg>
