<svg xmlns="http://www.w3.org/2000/svg" xmlns:xlink="http://www.w3.org/1999/xlink" preserveAspectRatio="xMidYMid" width="44" height="44" viewBox="0 0 44 44">
  <defs>
    <style>
      .cls-1 {
        fill: #25c5da;
        fill-rule: evenodd;
      }
    </style>
  </defs>
  <path d="M42.552,29.824 L29.825,42.551 C28.883,43.494 27.628,44.011 26.289,44.011 C24.950,44.011 23.695,43.494 22.753,42.551 L2.955,22.752 C1.195,20.993 -0.106,17.667 -0.006,15.181 L0.381,5.498 C0.490,2.784 2.785,0.489 5.497,0.381 L15.181,-0.007 C17.681,-0.121 21.000,1.200 22.753,2.954 L42.552,22.752 C43.494,23.694 44.012,24.949 44.012,26.287 C44.012,27.627 43.494,28.882 42.552,29.824 ZM41.138,24.168 L21.339,4.367 C20.027,3.055 17.386,1.988 15.452,1.988 L15.261,1.992 L5.577,2.379 C3.910,2.445 2.446,3.911 2.379,5.577 L1.992,15.261 C1.915,17.189 3.003,19.973 4.369,21.339 L24.167,41.137 C25.295,42.264 27.284,42.264 28.411,41.137 L41.138,28.409 C41.702,27.845 42.012,27.092 42.012,26.287 C42.012,25.482 41.702,24.730 41.138,24.168 ZM10.732,15.732 C9.397,15.732 8.141,15.212 7.197,14.269 C5.249,12.318 5.249,9.146 7.197,7.196 C8.141,6.251 9.396,5.732 10.731,5.732 C12.067,5.732 13.324,6.254 14.269,7.197 C16.218,9.146 16.218,12.318 14.269,14.269 C13.324,15.212 12.068,15.732 10.732,15.732 ZM12.854,8.611 C12.288,8.045 11.534,7.731 10.731,7.731 C9.930,7.731 9.177,8.044 8.611,8.610 C7.442,9.780 7.442,11.683 8.612,12.855 C9.744,13.988 11.721,13.988 12.854,12.855 C14.024,11.683 14.024,9.781 12.854,8.611 Z" class="cls-1"/>
</svg>
