<svg xmlns="http://www.w3.org/2000/svg" xmlns:xlink="http://www.w3.org/1999/xlink" preserveAspectRatio="xMidYMid" width="48" height="57" viewBox="0 0 48 57">
  <defs>
    <style>
      .cls-1 {
        fill: #fff;
        fill-rule: evenodd;
      }
    </style>
  </defs>
  <path d="M43.596,56.991 L4.404,56.991 C1.976,56.991 0.000,55.022 0.000,52.602 L0.000,23.679 C0.049,23.741 0.111,23.788 0.166,23.844 C0.059,23.502 0.129,23.116 0.401,22.845 L4.000,19.259 L4.000,5.001 L18.000,5.001 L23.016,0.312 C23.460,-0.132 24.456,-0.144 24.912,0.312 L30.000,5.001 L44.000,5.001 L44.000,19.331 L47.526,22.845 C47.706,23.024 47.794,23.256 47.808,23.489 C47.837,23.473 47.863,23.462 47.893,23.445 C47.933,23.421 47.962,23.391 48.000,23.367 L48.000,52.602 C48.000,55.022 46.024,56.991 43.596,56.991 ZM4.404,54.998 L43.596,54.998 C43.644,54.998 43.690,54.987 43.738,54.983 L30.972,42.263 L24.912,48.300 C24.717,48.495 24.461,48.592 24.205,48.592 C24.123,48.592 24.044,48.564 23.964,48.547 C23.884,48.564 23.805,48.592 23.723,48.592 C23.467,48.592 23.211,48.495 23.016,48.300 L16.972,42.277 L4.224,54.979 C4.285,54.984 4.343,54.998 4.404,54.998 ZM2.000,52.602 C2.000,53.104 2.157,53.569 2.423,53.956 L15.558,40.869 L2.000,27.359 L2.000,52.602 ZM4.000,22.076 L1.889,24.129 L1.998,24.110 C1.998,24.110 1.999,24.110 2.000,24.110 L2.000,24.541 L4.000,26.535 L4.000,22.076 ZM23.964,2.184 L21.000,5.001 L27.000,5.001 L23.964,2.184 ZM42.000,7.001 L6.000,7.001 L6.000,28.527 L23.964,46.428 L42.000,28.455 L42.000,7.001 ZM46.000,24.143 L44.000,22.150 L44.000,26.462 L46.000,24.469 L46.000,24.143 ZM46.000,27.287 L32.386,40.854 L45.558,53.979 C45.834,53.589 46.000,53.115 46.000,52.602 L46.000,27.287 ZM14.000,33.080 C14.000,32.530 14.448,31.991 15.000,31.991 L33.000,31.991 C33.553,31.991 34.000,32.443 34.000,33.003 C34.000,33.561 33.553,34.015 33.000,34.015 L15.000,34.015 C14.448,34.015 14.000,33.631 14.000,33.080 ZM12.000,26.008 C12.000,25.459 12.448,25.012 13.000,25.012 L35.000,25.012 C35.553,25.012 36.000,25.459 36.000,26.008 C36.000,26.559 35.553,27.006 35.000,27.006 L13.000,27.006 C12.448,27.006 12.000,26.559 12.000,26.008 ZM35.000,19.998 L13.000,19.998 C12.448,19.998 12.000,19.551 12.000,19.002 C12.000,18.452 12.448,18.006 13.000,18.006 L35.000,18.006 C35.553,18.006 36.000,18.452 36.000,19.002 C36.000,19.551 35.553,19.998 35.000,19.998 ZM28.000,12.992 L20.000,12.992 C19.448,12.992 19.000,12.546 19.000,11.996 C19.000,11.446 19.448,11.000 20.000,11.000 L28.000,11.000 C28.553,11.000 29.000,11.446 29.000,11.996 C29.000,12.546 28.553,12.992 28.000,12.992 Z" class="cls-1"/>
</svg>
