<svg xmlns="http://www.w3.org/2000/svg" xmlns:xlink="http://www.w3.org/1999/xlink" preserveAspectRatio="xMidYMid" width="53" height="40" viewBox="0 0 53 40">
  <defs>
    <style>
      .cls-1 {
        fill: #25c5da;
        fill-rule: evenodd;
      }
    </style>
  </defs>
  <path d="M51.000,35.000 L48.000,35.000 L48.000,33.000 L51.000,33.000 L51.000,2.001 L7.000,2.001 L7.000,5.000 L5.000,5.000 L5.000,2.001 L5.000,0.001 L51.000,0.001 L52.000,0.001 L53.000,0.001 L53.000,35.000 L51.000,35.000 ZM47.000,40.000 L0.000,40.000 L0.000,6.001 L47.000,6.001 L47.000,40.000 ZM45.000,8.000 L2.000,8.000 L2.000,31.531 L14.653,18.647 L14.672,18.665 L15.832,17.505 L29.339,31.012 L36.914,23.264 L36.926,23.275 L37.960,22.249 L45.000,29.354 L45.000,8.000 ZM45.000,32.195 L37.942,25.073 L29.356,33.856 L27.926,32.457 L27.941,32.442 L15.816,20.317 L2.000,34.385 L2.000,38.001 L45.000,38.001 L45.000,32.195 ZM31.264,23.000 L30.736,23.000 C28.125,23.000 26.000,20.875 26.000,18.263 L26.000,17.738 C26.000,15.126 28.125,13.000 30.736,13.000 L31.264,13.000 C33.875,13.000 36.000,15.126 36.000,17.738 L36.000,18.263 C36.000,20.875 33.875,23.000 31.264,23.000 ZM34.000,17.738 C34.000,16.228 32.772,15.000 31.264,15.000 L30.736,15.000 C29.228,15.000 28.000,16.228 28.000,17.738 L28.000,18.263 C28.000,19.773 29.228,21.001 30.736,21.001 L31.264,21.001 C32.772,21.001 34.000,19.773 34.000,18.263 L34.000,17.738 Z" class="cls-1"/>
</svg>
