<svg xmlns="http://www.w3.org/2000/svg" xmlns:xlink="http://www.w3.org/1999/xlink" preserveAspectRatio="xMidYMid" width="110" height="110" viewBox="0 0 110 110">
  <defs>
    <style>
      .cls-1 {
        fill: #25c5da;
        fill-rule: evenodd;
      }
    </style>
  </defs>
  <path d="M55.000,110.000 C24.624,110.000 -0.000,85.376 -0.000,55.000 C-0.000,24.625 24.624,-0.000 55.000,-0.000 C85.376,-0.000 110.000,24.625 110.000,55.000 C110.000,85.376 85.376,110.000 55.000,110.000 ZM52.006,38.992 L38.006,38.992 L38.006,54.347 L44.513,54.347 C44.513,56.805 44.054,58.883 43.133,60.578 C42.213,62.273 40.505,63.552 38.006,64.417 L38.006,70.998 C40.044,70.731 41.934,70.116 43.675,69.153 C45.417,68.189 46.913,66.975 48.161,65.514 C49.410,64.051 50.379,62.356 51.070,60.429 C51.760,58.500 52.072,56.440 52.006,54.247 L52.006,38.992 ZM73.006,38.992 L59.006,38.992 L59.006,54.347 L65.513,54.347 C65.513,56.805 65.054,58.883 64.133,60.578 C63.213,62.273 61.505,63.552 59.006,64.417 L59.006,70.998 C61.044,70.731 62.934,70.116 64.675,69.153 C66.417,68.189 67.913,66.975 69.161,65.514 C70.410,64.051 71.379,62.356 72.070,60.429 C72.760,58.500 73.072,56.440 73.006,54.247 L73.006,38.992 Z" class="cls-1"/>
</svg>
